<mxfile host="app.diagrams.net" modified="2022-04-27T09:35:41.824Z" agent="5.0 (Windows NT 10.0; Win64; x64) AppleWebKit/537.36 (KHTML, like Gecko) Chrome/100.0.4896.127 Safari/537.36" etag="kYQ_ewnAWQbOU9DKTnua" version="17.4.6" type="github">
  <diagram id="Iv0cxKoK1hxGYMcb1AIZ" name="Page-1">
    <mxGraphModel dx="1695" dy="488" grid="1" gridSize="10" guides="1" tooltips="1" connect="1" arrows="1" fold="1" page="1" pageScale="1" pageWidth="827" pageHeight="1169" math="0" shadow="0">
      <root>
        <mxCell id="0" />
        <mxCell id="1" parent="0" />
        <mxCell id="tBkHHK9JIL61vI1MXBWX-82" value="" style="shape=table;startSize=0;container=1;collapsible=0;childLayout=tableLayout;" parent="1" vertex="1">
          <mxGeometry x="-480" y="230" width="720" height="40" as="geometry" />
        </mxCell>
        <mxCell id="tBkHHK9JIL61vI1MXBWX-83" value="" style="shape=tableRow;horizontal=0;startSize=0;swimlaneHead=0;swimlaneBody=0;top=0;left=0;bottom=0;right=0;collapsible=0;dropTarget=0;fillColor=none;points=[[0,0.5],[1,0.5]];portConstraint=eastwest;" parent="tBkHHK9JIL61vI1MXBWX-82" vertex="1">
          <mxGeometry width="720" height="40" as="geometry" />
        </mxCell>
        <mxCell id="tBkHHK9JIL61vI1MXBWX-84" value="&lt;u&gt;&lt;font color=&quot;#ff0000&quot;&gt;MemID&lt;/font&gt;&lt;/u&gt;" style="shape=partialRectangle;html=1;whiteSpace=wrap;connectable=0;overflow=hidden;fillColor=none;top=0;left=0;bottom=0;right=0;pointerEvents=1;" parent="tBkHHK9JIL61vI1MXBWX-83" vertex="1">
          <mxGeometry width="60" height="40" as="geometry">
            <mxRectangle width="60" height="40" as="alternateBounds" />
          </mxGeometry>
        </mxCell>
        <mxCell id="tBkHHK9JIL61vI1MXBWX-85" value="faculty" style="shape=partialRectangle;html=1;whiteSpace=wrap;connectable=0;overflow=hidden;fillColor=none;top=0;left=0;bottom=0;right=0;pointerEvents=1;" parent="tBkHHK9JIL61vI1MXBWX-83" vertex="1">
          <mxGeometry x="60" width="60" height="40" as="geometry">
            <mxRectangle width="60" height="40" as="alternateBounds" />
          </mxGeometry>
        </mxCell>
        <mxCell id="tBkHHK9JIL61vI1MXBWX-86" value="department" style="shape=partialRectangle;html=1;whiteSpace=wrap;connectable=0;overflow=hidden;fillColor=none;top=0;left=0;bottom=0;right=0;pointerEvents=1;" parent="tBkHHK9JIL61vI1MXBWX-83" vertex="1">
          <mxGeometry x="120" width="60" height="40" as="geometry">
            <mxRectangle width="60" height="40" as="alternateBounds" />
          </mxGeometry>
        </mxCell>
        <mxCell id="tBkHHK9JIL61vI1MXBWX-87" value="state" style="shape=partialRectangle;html=1;whiteSpace=wrap;connectable=0;overflow=hidden;fillColor=none;top=0;left=0;bottom=0;right=0;pointerEvents=1;" parent="tBkHHK9JIL61vI1MXBWX-83" vertex="1">
          <mxGeometry x="180" width="60" height="40" as="geometry">
            <mxRectangle width="60" height="40" as="alternateBounds" />
          </mxGeometry>
        </mxCell>
        <mxCell id="tBkHHK9JIL61vI1MXBWX-88" value="email" style="shape=partialRectangle;html=1;whiteSpace=wrap;connectable=0;overflow=hidden;fillColor=none;top=0;left=0;bottom=0;right=0;pointerEvents=1;" parent="tBkHHK9JIL61vI1MXBWX-83" vertex="1">
          <mxGeometry x="240" width="60" height="40" as="geometry">
            <mxRectangle width="60" height="40" as="alternateBounds" />
          </mxGeometry>
        </mxCell>
        <mxCell id="tBkHHK9JIL61vI1MXBWX-89" value="address" style="shape=partialRectangle;html=1;whiteSpace=wrap;connectable=0;overflow=hidden;fillColor=none;top=0;left=0;bottom=0;right=0;pointerEvents=1;" parent="tBkHHK9JIL61vI1MXBWX-83" vertex="1">
          <mxGeometry x="300" width="60" height="40" as="geometry">
            <mxRectangle width="60" height="40" as="alternateBounds" />
          </mxGeometry>
        </mxCell>
        <mxCell id="tBkHHK9JIL61vI1MXBWX-90" value="sex" style="shape=partialRectangle;html=1;whiteSpace=wrap;connectable=0;overflow=hidden;fillColor=none;top=0;left=0;bottom=0;right=0;pointerEvents=1;" parent="tBkHHK9JIL61vI1MXBWX-83" vertex="1">
          <mxGeometry x="360" width="60" height="40" as="geometry">
            <mxRectangle width="60" height="40" as="alternateBounds" />
          </mxGeometry>
        </mxCell>
        <mxCell id="tBkHHK9JIL61vI1MXBWX-91" value="Bdate" style="shape=partialRectangle;html=1;whiteSpace=wrap;connectable=0;overflow=hidden;fillColor=none;top=0;left=0;bottom=0;right=0;pointerEvents=1;" parent="tBkHHK9JIL61vI1MXBWX-83" vertex="1">
          <mxGeometry x="420" width="60" height="40" as="geometry">
            <mxRectangle width="60" height="40" as="alternateBounds" />
          </mxGeometry>
        </mxCell>
        <mxCell id="tBkHHK9JIL61vI1MXBWX-92" value="year" style="shape=partialRectangle;html=1;whiteSpace=wrap;connectable=0;overflow=hidden;fillColor=none;top=0;left=0;bottom=0;right=0;pointerEvents=1;" parent="tBkHHK9JIL61vI1MXBWX-83" vertex="1">
          <mxGeometry x="480" width="60" height="40" as="geometry">
            <mxRectangle width="60" height="40" as="alternateBounds" />
          </mxGeometry>
        </mxCell>
        <mxCell id="tBkHHK9JIL61vI1MXBWX-93" value="Fname" style="shape=partialRectangle;html=1;whiteSpace=wrap;connectable=0;overflow=hidden;fillColor=none;top=0;left=0;bottom=0;right=0;pointerEvents=1;" parent="tBkHHK9JIL61vI1MXBWX-83" vertex="1">
          <mxGeometry x="540" width="60" height="40" as="geometry">
            <mxRectangle width="60" height="40" as="alternateBounds" />
          </mxGeometry>
        </mxCell>
        <mxCell id="tBkHHK9JIL61vI1MXBWX-94" value="Minit" style="shape=partialRectangle;html=1;whiteSpace=wrap;connectable=0;overflow=hidden;fillColor=none;top=0;left=0;bottom=0;right=0;pointerEvents=1;" parent="tBkHHK9JIL61vI1MXBWX-83" vertex="1">
          <mxGeometry x="600" width="60" height="40" as="geometry">
            <mxRectangle width="60" height="40" as="alternateBounds" />
          </mxGeometry>
        </mxCell>
        <mxCell id="tBkHHK9JIL61vI1MXBWX-95" value="Lname" style="shape=partialRectangle;html=1;whiteSpace=wrap;connectable=0;overflow=hidden;fillColor=none;top=0;left=0;bottom=0;right=0;pointerEvents=1;" parent="tBkHHK9JIL61vI1MXBWX-83" vertex="1">
          <mxGeometry x="660" width="60" height="40" as="geometry">
            <mxRectangle width="60" height="40" as="alternateBounds" />
          </mxGeometry>
        </mxCell>
        <mxCell id="tBkHHK9JIL61vI1MXBWX-99" value="MEMBER" style="text;html=1;strokeColor=none;fillColor=none;align=center;verticalAlign=middle;whiteSpace=wrap;rounded=0;" parent="1" vertex="1">
          <mxGeometry x="-480" y="200" width="60" height="30" as="geometry" />
        </mxCell>
        <mxCell id="tBkHHK9JIL61vI1MXBWX-100" value="" style="shape=table;startSize=0;container=1;collapsible=0;childLayout=tableLayout;fontColor=#000000;" parent="1" vertex="1">
          <mxGeometry x="-480" y="440" width="420" height="40" as="geometry" />
        </mxCell>
        <mxCell id="tBkHHK9JIL61vI1MXBWX-101" value="" style="shape=tableRow;horizontal=0;startSize=0;swimlaneHead=0;swimlaneBody=0;top=0;left=0;bottom=0;right=0;collapsible=0;dropTarget=0;fillColor=none;points=[[0,0.5],[1,0.5]];portConstraint=eastwest;fontColor=#FF0000;" parent="tBkHHK9JIL61vI1MXBWX-100" vertex="1">
          <mxGeometry width="420" height="40" as="geometry" />
        </mxCell>
        <mxCell id="tBkHHK9JIL61vI1MXBWX-102" value="&lt;u&gt;ComID&lt;/u&gt;" style="shape=partialRectangle;html=1;whiteSpace=wrap;connectable=0;overflow=hidden;fillColor=none;top=0;left=0;bottom=0;right=0;pointerEvents=1;fontColor=#FF0000;" parent="tBkHHK9JIL61vI1MXBWX-101" vertex="1">
          <mxGeometry width="60" height="40" as="geometry">
            <mxRectangle width="60" height="40" as="alternateBounds" />
          </mxGeometry>
        </mxCell>
        <mxCell id="tBkHHK9JIL61vI1MXBWX-103" value="name" style="shape=partialRectangle;html=1;whiteSpace=wrap;connectable=0;overflow=hidden;fillColor=none;top=0;left=0;bottom=0;right=0;pointerEvents=1;fontColor=#000000;" parent="tBkHHK9JIL61vI1MXBWX-101" vertex="1">
          <mxGeometry x="60" width="60" height="40" as="geometry">
            <mxRectangle width="60" height="40" as="alternateBounds" />
          </mxGeometry>
        </mxCell>
        <mxCell id="tBkHHK9JIL61vI1MXBWX-104" value="startYear" style="shape=partialRectangle;html=1;whiteSpace=wrap;connectable=0;overflow=hidden;fillColor=none;top=0;left=0;bottom=0;right=0;pointerEvents=1;fontColor=#000000;" parent="tBkHHK9JIL61vI1MXBWX-101" vertex="1">
          <mxGeometry x="120" width="60" height="40" as="geometry">
            <mxRectangle width="60" height="40" as="alternateBounds" />
          </mxGeometry>
        </mxCell>
        <mxCell id="tBkHHK9JIL61vI1MXBWX-105" value="&lt;font color=&quot;#000000&quot;&gt;startDate&lt;/font&gt;" style="shape=partialRectangle;html=1;whiteSpace=wrap;connectable=0;overflow=hidden;fillColor=none;top=0;left=0;bottom=0;right=0;pointerEvents=1;fontColor=#FF0000;" parent="tBkHHK9JIL61vI1MXBWX-101" vertex="1">
          <mxGeometry x="180" width="60" height="40" as="geometry">
            <mxRectangle width="60" height="40" as="alternateBounds" />
          </mxGeometry>
        </mxCell>
        <mxCell id="tBkHHK9JIL61vI1MXBWX-106" value="endDate" style="shape=partialRectangle;html=1;whiteSpace=wrap;connectable=0;overflow=hidden;fillColor=none;top=0;left=0;bottom=0;right=0;pointerEvents=1;fontColor=#000000;" parent="tBkHHK9JIL61vI1MXBWX-101" vertex="1">
          <mxGeometry x="240" width="60" height="40" as="geometry">
            <mxRectangle width="60" height="40" as="alternateBounds" />
          </mxGeometry>
        </mxCell>
        <mxCell id="tBkHHK9JIL61vI1MXBWX-107" value="&lt;font color=&quot;#000000&quot;&gt;position&lt;/font&gt;" style="shape=partialRectangle;html=1;whiteSpace=wrap;connectable=0;overflow=hidden;fillColor=none;top=0;left=0;bottom=0;right=0;pointerEvents=1;fontColor=#FF0000;" parent="tBkHHK9JIL61vI1MXBWX-101" vertex="1">
          <mxGeometry x="300" width="60" height="40" as="geometry">
            <mxRectangle width="60" height="40" as="alternateBounds" />
          </mxGeometry>
        </mxCell>
        <mxCell id="tBkHHK9JIL61vI1MXBWX-108" value="MemID" style="shape=partialRectangle;html=1;whiteSpace=wrap;connectable=0;overflow=hidden;fillColor=none;top=0;left=0;bottom=0;right=0;pointerEvents=1;fontColor=#FF0000;" parent="tBkHHK9JIL61vI1MXBWX-101" vertex="1">
          <mxGeometry x="360" width="60" height="40" as="geometry">
            <mxRectangle width="60" height="40" as="alternateBounds" />
          </mxGeometry>
        </mxCell>
        <mxCell id="tBkHHK9JIL61vI1MXBWX-110" value="COMMITTEE" style="text;html=1;strokeColor=none;fillColor=none;align=center;verticalAlign=middle;whiteSpace=wrap;rounded=0;fontColor=#000000;" parent="1" vertex="1">
          <mxGeometry x="-480" y="410" width="90" height="30" as="geometry" />
        </mxCell>
        <mxCell id="tBkHHK9JIL61vI1MXBWX-111" value="" style="shape=table;startSize=0;container=1;collapsible=0;childLayout=tableLayout;fontColor=#000000;" parent="1" vertex="1">
          <mxGeometry x="-480" y="610" width="540" height="40" as="geometry" />
        </mxCell>
        <mxCell id="tBkHHK9JIL61vI1MXBWX-112" value="" style="shape=tableRow;horizontal=0;startSize=0;swimlaneHead=0;swimlaneBody=0;top=0;left=0;bottom=0;right=0;collapsible=0;dropTarget=0;fillColor=none;points=[[0,0.5],[1,0.5]];portConstraint=eastwest;fontColor=#000000;" parent="tBkHHK9JIL61vI1MXBWX-111" vertex="1">
          <mxGeometry width="540" height="40" as="geometry" />
        </mxCell>
        <mxCell id="tBkHHK9JIL61vI1MXBWX-113" value="&lt;u&gt;&lt;font color=&quot;#ff0000&quot;&gt;wID&lt;/font&gt;&lt;/u&gt;" style="shape=partialRectangle;html=1;whiteSpace=wrap;connectable=0;overflow=hidden;fillColor=none;top=0;left=0;bottom=0;right=0;pointerEvents=1;fontColor=#000000;" parent="tBkHHK9JIL61vI1MXBWX-112" vertex="1">
          <mxGeometry width="60" height="40" as="geometry">
            <mxRectangle width="60" height="40" as="alternateBounds" />
          </mxGeometry>
        </mxCell>
        <mxCell id="tBkHHK9JIL61vI1MXBWX-114" value="name" style="shape=partialRectangle;html=1;whiteSpace=wrap;connectable=0;overflow=hidden;fillColor=none;top=0;left=0;bottom=0;right=0;pointerEvents=1;fontColor=#000000;" parent="tBkHHK9JIL61vI1MXBWX-112" vertex="1">
          <mxGeometry x="60" width="60" height="40" as="geometry">
            <mxRectangle width="60" height="40" as="alternateBounds" />
          </mxGeometry>
        </mxCell>
        <mxCell id="tBkHHK9JIL61vI1MXBWX-115" value="type" style="shape=partialRectangle;html=1;whiteSpace=wrap;connectable=0;overflow=hidden;fillColor=none;top=0;left=0;bottom=0;right=0;pointerEvents=1;fontColor=#000000;" parent="tBkHHK9JIL61vI1MXBWX-112" vertex="1">
          <mxGeometry x="120" width="60" height="40" as="geometry">
            <mxRectangle width="60" height="40" as="alternateBounds" />
          </mxGeometry>
        </mxCell>
        <mxCell id="tBkHHK9JIL61vI1MXBWX-116" value="startDate" style="shape=partialRectangle;html=1;whiteSpace=wrap;connectable=0;overflow=hidden;fillColor=none;top=0;left=0;bottom=0;right=0;pointerEvents=1;fontColor=#000000;" parent="tBkHHK9JIL61vI1MXBWX-112" vertex="1">
          <mxGeometry x="180" width="60" height="40" as="geometry">
            <mxRectangle width="60" height="40" as="alternateBounds" />
          </mxGeometry>
        </mxCell>
        <mxCell id="tBkHHK9JIL61vI1MXBWX-117" value="endDate" style="shape=partialRectangle;html=1;whiteSpace=wrap;connectable=0;overflow=hidden;fillColor=none;top=0;left=0;bottom=0;right=0;pointerEvents=1;fontColor=#000000;" parent="tBkHHK9JIL61vI1MXBWX-112" vertex="1">
          <mxGeometry x="240" width="60" height="40" as="geometry">
            <mxRectangle width="60" height="40" as="alternateBounds" />
          </mxGeometry>
        </mxCell>
        <mxCell id="tBkHHK9JIL61vI1MXBWX-118" value="&lt;strike&gt;type&lt;/strike&gt;" style="shape=partialRectangle;html=1;whiteSpace=wrap;connectable=0;overflow=hidden;fillColor=none;top=0;left=0;bottom=0;right=0;pointerEvents=1;fontColor=#000000;" parent="tBkHHK9JIL61vI1MXBWX-112" vertex="1">
          <mxGeometry x="300" width="60" height="40" as="geometry">
            <mxRectangle width="60" height="40" as="alternateBounds" />
          </mxGeometry>
        </mxCell>
        <mxCell id="tBkHHK9JIL61vI1MXBWX-119" value="capacity" style="shape=partialRectangle;html=1;whiteSpace=wrap;connectable=0;overflow=hidden;fillColor=none;top=0;left=0;bottom=0;right=0;pointerEvents=1;fontColor=#000000;" parent="tBkHHK9JIL61vI1MXBWX-112" vertex="1">
          <mxGeometry x="360" width="60" height="40" as="geometry">
            <mxRectangle width="60" height="40" as="alternateBounds" />
          </mxGeometry>
        </mxCell>
        <mxCell id="tBkHHK9JIL61vI1MXBWX-120" value="tutor" style="shape=partialRectangle;html=1;whiteSpace=wrap;connectable=0;overflow=hidden;fillColor=none;top=0;left=0;bottom=0;right=0;pointerEvents=1;fontColor=#000000;" parent="tBkHHK9JIL61vI1MXBWX-112" vertex="1">
          <mxGeometry x="420" width="60" height="40" as="geometry">
            <mxRectangle width="60" height="40" as="alternateBounds" />
          </mxGeometry>
        </mxCell>
        <mxCell id="tBkHHK9JIL61vI1MXBWX-121" value="time" style="shape=partialRectangle;html=1;whiteSpace=wrap;connectable=0;overflow=hidden;fillColor=none;top=0;left=0;bottom=0;right=0;pointerEvents=1;fontColor=#000000;" parent="tBkHHK9JIL61vI1MXBWX-112" vertex="1">
          <mxGeometry x="480" width="60" height="40" as="geometry">
            <mxRectangle width="60" height="40" as="alternateBounds" />
          </mxGeometry>
        </mxCell>
        <mxCell id="tBkHHK9JIL61vI1MXBWX-122" value="" style="shape=table;startSize=0;container=1;collapsible=0;childLayout=tableLayout;fontColor=#000000;" parent="1" vertex="1">
          <mxGeometry x="60" y="610" width="60" height="40" as="geometry" />
        </mxCell>
        <mxCell id="tBkHHK9JIL61vI1MXBWX-123" value="" style="shape=tableRow;horizontal=0;startSize=0;swimlaneHead=0;swimlaneBody=0;top=0;left=0;bottom=0;right=0;collapsible=0;dropTarget=0;fillColor=none;points=[[0,0.5],[1,0.5]];portConstraint=eastwest;fontColor=#000000;" parent="tBkHHK9JIL61vI1MXBWX-122" vertex="1">
          <mxGeometry width="60" height="40" as="geometry" />
        </mxCell>
        <mxCell id="tBkHHK9JIL61vI1MXBWX-124" value="&lt;font color=&quot;#ff0000&quot;&gt;orgSubID&lt;/font&gt;" style="shape=partialRectangle;html=1;whiteSpace=wrap;connectable=0;overflow=hidden;fillColor=none;top=0;left=0;bottom=0;right=0;pointerEvents=1;fontColor=#000000;" parent="tBkHHK9JIL61vI1MXBWX-123" vertex="1">
          <mxGeometry width="60" height="40" as="geometry">
            <mxRectangle width="60" height="40" as="alternateBounds" />
          </mxGeometry>
        </mxCell>
        <mxCell id="tBkHHK9JIL61vI1MXBWX-125" value="WORKSHOP" style="text;html=1;strokeColor=none;fillColor=none;align=center;verticalAlign=middle;whiteSpace=wrap;rounded=0;fontColor=#000000;" parent="1" vertex="1">
          <mxGeometry x="-480" y="580" width="60" height="30" as="geometry" />
        </mxCell>
        <mxCell id="tBkHHK9JIL61vI1MXBWX-126" value="" style="shape=table;startSize=0;container=1;collapsible=0;childLayout=tableLayout;fontColor=#000000;" parent="1" vertex="1">
          <mxGeometry x="10" y="940" width="240" height="40" as="geometry" />
        </mxCell>
        <mxCell id="tBkHHK9JIL61vI1MXBWX-127" value="" style="shape=tableRow;horizontal=0;startSize=0;swimlaneHead=0;swimlaneBody=0;top=0;left=0;bottom=0;right=0;collapsible=0;dropTarget=0;fillColor=none;points=[[0,0.5],[1,0.5]];portConstraint=eastwest;fontColor=#000000;" parent="tBkHHK9JIL61vI1MXBWX-126" vertex="1">
          <mxGeometry width="240" height="40" as="geometry" />
        </mxCell>
        <mxCell id="tBkHHK9JIL61vI1MXBWX-128" value="&lt;font color=&quot;#ff0000&quot;&gt;&lt;u&gt;evID&lt;/u&gt;&lt;/font&gt;" style="shape=partialRectangle;html=1;whiteSpace=wrap;connectable=0;overflow=hidden;fillColor=none;top=0;left=0;bottom=0;right=0;pointerEvents=1;fontColor=#000000;" parent="tBkHHK9JIL61vI1MXBWX-127" vertex="1">
          <mxGeometry width="60" height="40" as="geometry">
            <mxRectangle width="60" height="40" as="alternateBounds" />
          </mxGeometry>
        </mxCell>
        <mxCell id="tBkHHK9JIL61vI1MXBWX-129" value="name" style="shape=partialRectangle;html=1;whiteSpace=wrap;connectable=0;overflow=hidden;fillColor=none;top=0;left=0;bottom=0;right=0;pointerEvents=1;fontColor=#000000;" parent="tBkHHK9JIL61vI1MXBWX-127" vertex="1">
          <mxGeometry x="60" width="60" height="40" as="geometry">
            <mxRectangle width="60" height="40" as="alternateBounds" />
          </mxGeometry>
        </mxCell>
        <mxCell id="tBkHHK9JIL61vI1MXBWX-130" value="date" style="shape=partialRectangle;html=1;whiteSpace=wrap;connectable=0;overflow=hidden;fillColor=none;top=0;left=0;bottom=0;right=0;pointerEvents=1;fontColor=#000000;" parent="tBkHHK9JIL61vI1MXBWX-127" vertex="1">
          <mxGeometry x="120" width="60" height="40" as="geometry">
            <mxRectangle width="60" height="40" as="alternateBounds" />
          </mxGeometry>
        </mxCell>
        <mxCell id="tBkHHK9JIL61vI1MXBWX-131" value="time" style="shape=partialRectangle;html=1;whiteSpace=wrap;connectable=0;overflow=hidden;fillColor=none;top=0;left=0;bottom=0;right=0;pointerEvents=1;fontColor=#000000;" parent="tBkHHK9JIL61vI1MXBWX-127" vertex="1">
          <mxGeometry x="180" width="60" height="40" as="geometry">
            <mxRectangle width="60" height="40" as="alternateBounds" />
          </mxGeometry>
        </mxCell>
        <mxCell id="tBkHHK9JIL61vI1MXBWX-132" value="EVENT" style="text;html=1;strokeColor=none;fillColor=none;align=center;verticalAlign=middle;whiteSpace=wrap;rounded=0;fontColor=#000000;" parent="1" vertex="1">
          <mxGeometry x="10" y="910" width="60" height="30" as="geometry" />
        </mxCell>
        <mxCell id="tBkHHK9JIL61vI1MXBWX-133" value="" style="shape=table;startSize=0;container=1;collapsible=0;childLayout=tableLayout;fontColor=#000000;" parent="1" vertex="1">
          <mxGeometry x="-480" y="940" width="360" height="40" as="geometry" />
        </mxCell>
        <mxCell id="tBkHHK9JIL61vI1MXBWX-134" value="" style="shape=tableRow;horizontal=0;startSize=0;swimlaneHead=0;swimlaneBody=0;top=0;left=0;bottom=0;right=0;collapsible=0;dropTarget=0;fillColor=none;points=[[0,0.5],[1,0.5]];portConstraint=eastwest;fontColor=#000000;" parent="tBkHHK9JIL61vI1MXBWX-133" vertex="1">
          <mxGeometry width="360" height="40" as="geometry" />
        </mxCell>
        <mxCell id="tBkHHK9JIL61vI1MXBWX-135" value="&lt;u&gt;&lt;font color=&quot;#ff0000&quot;&gt;subID&lt;/font&gt;&lt;/u&gt;" style="shape=partialRectangle;html=1;whiteSpace=wrap;connectable=0;overflow=hidden;fillColor=none;top=0;left=0;bottom=0;right=0;pointerEvents=1;fontColor=#000000;" parent="tBkHHK9JIL61vI1MXBWX-134" vertex="1">
          <mxGeometry width="60" height="40" as="geometry">
            <mxRectangle width="60" height="40" as="alternateBounds" />
          </mxGeometry>
        </mxCell>
        <mxCell id="tBkHHK9JIL61vI1MXBWX-136" value="name" style="shape=partialRectangle;html=1;whiteSpace=wrap;connectable=0;overflow=hidden;fillColor=none;top=0;left=0;bottom=0;right=0;pointerEvents=1;fontColor=#000000;" parent="tBkHHK9JIL61vI1MXBWX-134" vertex="1">
          <mxGeometry x="60" width="60" height="40" as="geometry">
            <mxRectangle width="60" height="40" as="alternateBounds" />
          </mxGeometry>
        </mxCell>
        <mxCell id="tBkHHK9JIL61vI1MXBWX-137" value="capacity" style="shape=partialRectangle;html=1;whiteSpace=wrap;connectable=0;overflow=hidden;fillColor=none;top=0;left=0;bottom=0;right=0;pointerEvents=1;fontColor=#000000;" parent="tBkHHK9JIL61vI1MXBWX-134" vertex="1">
          <mxGeometry x="120" width="60" height="40" as="geometry">
            <mxRectangle width="60" height="40" as="alternateBounds" />
          </mxGeometry>
        </mxCell>
        <mxCell id="tBkHHK9JIL61vI1MXBWX-138" value="&lt;font color=&quot;#ff0000&quot;&gt;mngrID&lt;/font&gt;" style="shape=partialRectangle;html=1;whiteSpace=wrap;connectable=0;overflow=hidden;fillColor=none;top=0;left=0;bottom=0;right=0;pointerEvents=1;fontColor=#000000;" parent="tBkHHK9JIL61vI1MXBWX-134" vertex="1">
          <mxGeometry x="180" width="60" height="40" as="geometry">
            <mxRectangle width="60" height="40" as="alternateBounds" />
          </mxGeometry>
        </mxCell>
        <mxCell id="tBkHHK9JIL61vI1MXBWX-139" value="startDate" style="shape=partialRectangle;html=1;whiteSpace=wrap;connectable=0;overflow=hidden;fillColor=none;top=0;left=0;bottom=0;right=0;pointerEvents=1;fontColor=#000000;" parent="tBkHHK9JIL61vI1MXBWX-134" vertex="1">
          <mxGeometry x="240" width="60" height="40" as="geometry">
            <mxRectangle width="60" height="40" as="alternateBounds" />
          </mxGeometry>
        </mxCell>
        <mxCell id="tBkHHK9JIL61vI1MXBWX-140" value="endDate" style="shape=partialRectangle;html=1;whiteSpace=wrap;connectable=0;overflow=hidden;fillColor=none;top=0;left=0;bottom=0;right=0;pointerEvents=1;fontColor=#000000;" parent="tBkHHK9JIL61vI1MXBWX-134" vertex="1">
          <mxGeometry x="300" width="60" height="40" as="geometry">
            <mxRectangle width="60" height="40" as="alternateBounds" />
          </mxGeometry>
        </mxCell>
        <mxCell id="tBkHHK9JIL61vI1MXBWX-141" value="SUBUNIT" style="text;html=1;strokeColor=none;fillColor=none;align=center;verticalAlign=middle;whiteSpace=wrap;rounded=0;fontColor=#000000;" parent="1" vertex="1">
          <mxGeometry x="-480" y="910" width="60" height="30" as="geometry" />
        </mxCell>
        <mxCell id="tBkHHK9JIL61vI1MXBWX-142" value="" style="shape=table;startSize=0;container=1;collapsible=0;childLayout=tableLayout;fontColor=#000000;" parent="1" vertex="1">
          <mxGeometry x="-480" y="760" width="360" height="40" as="geometry" />
        </mxCell>
        <mxCell id="tBkHHK9JIL61vI1MXBWX-143" value="" style="shape=tableRow;horizontal=0;startSize=0;swimlaneHead=0;swimlaneBody=0;top=0;left=0;bottom=0;right=0;collapsible=0;dropTarget=0;fillColor=none;points=[[0,0.5],[1,0.5]];portConstraint=eastwest;fontColor=#000000;" parent="tBkHHK9JIL61vI1MXBWX-142" vertex="1">
          <mxGeometry width="360" height="40" as="geometry" />
        </mxCell>
        <mxCell id="tBkHHK9JIL61vI1MXBWX-144" value="&lt;font color=&quot;#ff0000&quot;&gt;&lt;u&gt;memID&lt;/u&gt;&lt;/font&gt;" style="shape=partialRectangle;html=1;whiteSpace=wrap;connectable=0;overflow=hidden;fillColor=none;top=0;left=0;bottom=0;right=0;pointerEvents=1;fontColor=#000000;" parent="tBkHHK9JIL61vI1MXBWX-143" vertex="1">
          <mxGeometry width="60" height="40" as="geometry">
            <mxRectangle width="60" height="40" as="alternateBounds" />
          </mxGeometry>
        </mxCell>
        <mxCell id="tBkHHK9JIL61vI1MXBWX-145" value="&lt;u&gt;&lt;font color=&quot;#ff0000&quot;&gt;bgtID&lt;/font&gt;&lt;/u&gt;" style="shape=partialRectangle;html=1;whiteSpace=wrap;connectable=0;overflow=hidden;fillColor=none;top=0;left=0;bottom=0;right=0;pointerEvents=1;fontColor=#000000;" parent="tBkHHK9JIL61vI1MXBWX-143" vertex="1">
          <mxGeometry x="60" width="60" height="40" as="geometry">
            <mxRectangle width="60" height="40" as="alternateBounds" />
          </mxGeometry>
        </mxCell>
        <mxCell id="tBkHHK9JIL61vI1MXBWX-146" value="amount" style="shape=partialRectangle;html=1;whiteSpace=wrap;connectable=0;overflow=hidden;fillColor=none;top=0;left=0;bottom=0;right=0;pointerEvents=1;fontColor=#000000;" parent="tBkHHK9JIL61vI1MXBWX-143" vertex="1">
          <mxGeometry x="120" width="60" height="40" as="geometry">
            <mxRectangle width="60" height="40" as="alternateBounds" />
          </mxGeometry>
        </mxCell>
        <mxCell id="tBkHHK9JIL61vI1MXBWX-147" value="type" style="shape=partialRectangle;html=1;whiteSpace=wrap;connectable=0;overflow=hidden;fillColor=none;top=0;left=0;bottom=0;right=0;pointerEvents=1;fontColor=#000000;" parent="tBkHHK9JIL61vI1MXBWX-143" vertex="1">
          <mxGeometry x="180" width="60" height="40" as="geometry">
            <mxRectangle width="60" height="40" as="alternateBounds" />
          </mxGeometry>
        </mxCell>
        <mxCell id="tBkHHK9JIL61vI1MXBWX-148" value="ıssuedDate" style="shape=partialRectangle;html=1;whiteSpace=wrap;connectable=0;overflow=hidden;fillColor=none;top=0;left=0;bottom=0;right=0;pointerEvents=1;fontColor=#000000;" parent="tBkHHK9JIL61vI1MXBWX-143" vertex="1">
          <mxGeometry x="240" width="60" height="40" as="geometry">
            <mxRectangle width="60" height="40" as="alternateBounds" />
          </mxGeometry>
        </mxCell>
        <mxCell id="tBkHHK9JIL61vI1MXBWX-149" value="subID" style="shape=partialRectangle;html=1;whiteSpace=wrap;connectable=0;overflow=hidden;fillColor=none;top=0;left=0;bottom=0;right=0;pointerEvents=1;fontColor=#FF0000;" parent="tBkHHK9JIL61vI1MXBWX-143" vertex="1">
          <mxGeometry x="300" width="60" height="40" as="geometry">
            <mxRectangle width="60" height="40" as="alternateBounds" />
          </mxGeometry>
        </mxCell>
        <mxCell id="tBkHHK9JIL61vI1MXBWX-150" value="BUDGET" style="text;html=1;strokeColor=none;fillColor=none;align=center;verticalAlign=middle;whiteSpace=wrap;rounded=0;fontColor=#000000;" parent="1" vertex="1">
          <mxGeometry x="-480" y="740" width="60" height="30" as="geometry" />
        </mxCell>
        <mxCell id="tBkHHK9JIL61vI1MXBWX-151" value="" style="shape=table;startSize=0;container=1;collapsible=0;childLayout=tableLayout;fontColor=#000000;" parent="1" vertex="1">
          <mxGeometry x="50" y="440" width="120" height="40" as="geometry" />
        </mxCell>
        <mxCell id="tBkHHK9JIL61vI1MXBWX-152" value="" style="shape=tableRow;horizontal=0;startSize=0;swimlaneHead=0;swimlaneBody=0;top=0;left=0;bottom=0;right=0;collapsible=0;dropTarget=0;fillColor=none;points=[[0,0.5],[1,0.5]];portConstraint=eastwest;fontColor=#000000;" parent="tBkHHK9JIL61vI1MXBWX-151" vertex="1">
          <mxGeometry width="120" height="40" as="geometry" />
        </mxCell>
        <mxCell id="tBkHHK9JIL61vI1MXBWX-153" value="&lt;font color=&quot;#ff0000&quot;&gt;memID&lt;/font&gt;" style="shape=partialRectangle;html=1;whiteSpace=wrap;connectable=0;overflow=hidden;fillColor=none;top=0;left=0;bottom=0;right=0;pointerEvents=1;fontColor=#000000;" parent="tBkHHK9JIL61vI1MXBWX-152" vertex="1">
          <mxGeometry width="60" height="40" as="geometry">
            <mxRectangle width="60" height="40" as="alternateBounds" />
          </mxGeometry>
        </mxCell>
        <mxCell id="tBkHHK9JIL61vI1MXBWX-154" value="&lt;font color=&quot;#ff0000&quot;&gt;wID&lt;/font&gt;" style="shape=partialRectangle;html=1;whiteSpace=wrap;connectable=0;overflow=hidden;fillColor=none;top=0;left=0;bottom=0;right=0;pointerEvents=1;fontColor=#000000;" parent="tBkHHK9JIL61vI1MXBWX-152" vertex="1">
          <mxGeometry x="60" width="60" height="40" as="geometry">
            <mxRectangle width="60" height="40" as="alternateBounds" />
          </mxGeometry>
        </mxCell>
        <mxCell id="tBkHHK9JIL61vI1MXBWX-155" value="WORKSHOP MEM" style="text;html=1;strokeColor=none;fillColor=none;align=center;verticalAlign=middle;whiteSpace=wrap;rounded=0;fontColor=#000000;" parent="1" vertex="1">
          <mxGeometry x="50" y="410" width="60" height="30" as="geometry" />
        </mxCell>
        <mxCell id="tBkHHK9JIL61vI1MXBWX-156" value="" style="shape=table;startSize=0;container=1;collapsible=0;childLayout=tableLayout;fontColor=#000000;" parent="1" vertex="1">
          <mxGeometry x="-710" y="940" width="120" height="40" as="geometry" />
        </mxCell>
        <mxCell id="tBkHHK9JIL61vI1MXBWX-157" value="" style="shape=tableRow;horizontal=0;startSize=0;swimlaneHead=0;swimlaneBody=0;top=0;left=0;bottom=0;right=0;collapsible=0;dropTarget=0;fillColor=none;points=[[0,0.5],[1,0.5]];portConstraint=eastwest;fontColor=#000000;" parent="tBkHHK9JIL61vI1MXBWX-156" vertex="1">
          <mxGeometry width="120" height="40" as="geometry" />
        </mxCell>
        <mxCell id="tBkHHK9JIL61vI1MXBWX-158" value="&lt;font color=&quot;#ff0000&quot;&gt;memID&lt;/font&gt;" style="shape=partialRectangle;html=1;whiteSpace=wrap;connectable=0;overflow=hidden;fillColor=none;top=0;left=0;bottom=0;right=0;pointerEvents=1;fontColor=#000000;" parent="tBkHHK9JIL61vI1MXBWX-157" vertex="1">
          <mxGeometry width="60" height="40" as="geometry">
            <mxRectangle width="60" height="40" as="alternateBounds" />
          </mxGeometry>
        </mxCell>
        <mxCell id="tBkHHK9JIL61vI1MXBWX-159" value="&lt;font color=&quot;#ff0000&quot;&gt;subID&lt;/font&gt;" style="shape=partialRectangle;html=1;whiteSpace=wrap;connectable=0;overflow=hidden;fillColor=none;top=0;left=0;bottom=0;right=0;pointerEvents=1;fontColor=#000000;" parent="tBkHHK9JIL61vI1MXBWX-157" vertex="1">
          <mxGeometry x="60" width="60" height="40" as="geometry">
            <mxRectangle width="60" height="40" as="alternateBounds" />
          </mxGeometry>
        </mxCell>
        <mxCell id="tBkHHK9JIL61vI1MXBWX-160" value="SUBUNIT MEM" style="text;html=1;strokeColor=none;fillColor=none;align=center;verticalAlign=middle;whiteSpace=wrap;rounded=0;fontColor=#000000;" parent="1" vertex="1">
          <mxGeometry x="-710" y="910" width="60" height="30" as="geometry" />
        </mxCell>
        <mxCell id="tBkHHK9JIL61vI1MXBWX-161" value="" style="shape=table;startSize=0;container=1;collapsible=0;childLayout=tableLayout;fontColor=#000000;" parent="1" vertex="1">
          <mxGeometry x="10" y="760" width="120" height="40" as="geometry" />
        </mxCell>
        <mxCell id="tBkHHK9JIL61vI1MXBWX-162" value="" style="shape=tableRow;horizontal=0;startSize=0;swimlaneHead=0;swimlaneBody=0;top=0;left=0;bottom=0;right=0;collapsible=0;dropTarget=0;fillColor=none;points=[[0,0.5],[1,0.5]];portConstraint=eastwest;fontColor=#000000;" parent="tBkHHK9JIL61vI1MXBWX-161" vertex="1">
          <mxGeometry width="120" height="40" as="geometry" />
        </mxCell>
        <mxCell id="tBkHHK9JIL61vI1MXBWX-163" value="&lt;span style=&quot;color: rgb(255 , 0 , 0)&quot;&gt;evID&lt;/span&gt;" style="shape=partialRectangle;html=1;whiteSpace=wrap;connectable=0;overflow=hidden;fillColor=none;top=0;left=0;bottom=0;right=0;pointerEvents=1;fontColor=#000000;" parent="tBkHHK9JIL61vI1MXBWX-162" vertex="1">
          <mxGeometry width="60" height="40" as="geometry">
            <mxRectangle width="60" height="40" as="alternateBounds" />
          </mxGeometry>
        </mxCell>
        <mxCell id="tBkHHK9JIL61vI1MXBWX-164" value="&lt;font color=&quot;#ff0000&quot;&gt;memID&lt;/font&gt;" style="shape=partialRectangle;html=1;whiteSpace=wrap;connectable=0;overflow=hidden;fillColor=none;top=0;left=0;bottom=0;right=0;pointerEvents=1;fontColor=#000000;" parent="tBkHHK9JIL61vI1MXBWX-162" vertex="1">
          <mxGeometry x="60" width="60" height="40" as="geometry">
            <mxRectangle width="60" height="40" as="alternateBounds" />
          </mxGeometry>
        </mxCell>
        <mxCell id="tBkHHK9JIL61vI1MXBWX-165" value="ATTENDEE" style="text;html=1;strokeColor=none;fillColor=none;align=center;verticalAlign=middle;whiteSpace=wrap;rounded=0;fontColor=#000000;" parent="1" vertex="1">
          <mxGeometry x="10" y="730" width="60" height="30" as="geometry" />
        </mxCell>
        <mxCell id="tBkHHK9JIL61vI1MXBWX-166" value="" style="shape=table;startSize=0;container=1;collapsible=0;childLayout=tableLayout;fontColor=#000000;" parent="1" vertex="1">
          <mxGeometry x="-480" y="1090" width="120" height="40" as="geometry" />
        </mxCell>
        <mxCell id="tBkHHK9JIL61vI1MXBWX-167" value="" style="shape=tableRow;horizontal=0;startSize=0;swimlaneHead=0;swimlaneBody=0;top=0;left=0;bottom=0;right=0;collapsible=0;dropTarget=0;fillColor=none;points=[[0,0.5],[1,0.5]];portConstraint=eastwest;fontColor=#000000;" parent="tBkHHK9JIL61vI1MXBWX-166" vertex="1">
          <mxGeometry width="120" height="40" as="geometry" />
        </mxCell>
        <mxCell id="tBkHHK9JIL61vI1MXBWX-168" value="&lt;font color=&quot;#ff0000&quot;&gt;evID&lt;/font&gt;" style="shape=partialRectangle;html=1;whiteSpace=wrap;connectable=0;overflow=hidden;fillColor=none;top=0;left=0;bottom=0;right=0;pointerEvents=1;fontColor=#000000;" parent="tBkHHK9JIL61vI1MXBWX-167" vertex="1">
          <mxGeometry width="60" height="40" as="geometry">
            <mxRectangle width="60" height="40" as="alternateBounds" />
          </mxGeometry>
        </mxCell>
        <mxCell id="tBkHHK9JIL61vI1MXBWX-169" value="&lt;font color=&quot;#ff0000&quot;&gt;subID&lt;/font&gt;" style="shape=partialRectangle;html=1;whiteSpace=wrap;connectable=0;overflow=hidden;fillColor=none;top=0;left=0;bottom=0;right=0;pointerEvents=1;fontColor=#000000;" parent="tBkHHK9JIL61vI1MXBWX-167" vertex="1">
          <mxGeometry x="60" width="60" height="40" as="geometry">
            <mxRectangle width="60" height="40" as="alternateBounds" />
          </mxGeometry>
        </mxCell>
        <mxCell id="tBkHHK9JIL61vI1MXBWX-170" value="ORG SUBUNIT" style="text;html=1;strokeColor=none;fillColor=none;align=center;verticalAlign=middle;whiteSpace=wrap;rounded=0;fontColor=#000000;" parent="1" vertex="1">
          <mxGeometry x="-480" y="1060" width="60" height="30" as="geometry" />
        </mxCell>
        <mxCell id="tBkHHK9JIL61vI1MXBWX-172" value="" style="endArrow=none;dashed=1;html=1;dashPattern=1 3;strokeWidth=2;rounded=0;fontColor=#FF0000;" parent="1" edge="1">
          <mxGeometry width="50" height="50" relative="1" as="geometry">
            <mxPoint x="-410" y="800" as="sourcePoint" />
            <mxPoint x="-367" y="800" as="targetPoint" />
          </mxGeometry>
        </mxCell>
        <mxCell id="tBkHHK9JIL61vI1MXBWX-174" value="" style="endArrow=classic;html=1;rounded=0;fontColor=#FF0000;entryX=0.05;entryY=1.143;entryDx=0;entryDy=0;entryPerimeter=0;exitX=0.93;exitY=0.01;exitDx=0;exitDy=0;exitPerimeter=0;" parent="1" source="tBkHHK9JIL61vI1MXBWX-101" target="tBkHHK9JIL61vI1MXBWX-83" edge="1">
          <mxGeometry width="50" height="50" relative="1" as="geometry">
            <mxPoint x="-20" y="410" as="sourcePoint" />
            <mxPoint x="10" y="480" as="targetPoint" />
            <Array as="points" />
          </mxGeometry>
        </mxCell>
        <mxCell id="tBkHHK9JIL61vI1MXBWX-175" value="&lt;font style=&quot;font-size: 10px&quot;&gt;FK&lt;/font&gt;" style="text;strokeColor=none;fillColor=none;html=1;fontSize=24;fontStyle=1;verticalAlign=middle;align=center;fontColor=#FF0000;" parent="1" vertex="1">
          <mxGeometry x="-420" y="260" width="30" height="40" as="geometry" />
        </mxCell>
        <mxCell id="tBkHHK9JIL61vI1MXBWX-176" value="" style="endArrow=classic;html=1;rounded=0;fontSize=10;fontColor=#FF0000;exitX=0.475;exitY=-0.028;exitDx=0;exitDy=0;exitPerimeter=0;entryX=0;entryY=0.5;entryDx=0;entryDy=0;" parent="1" source="tBkHHK9JIL61vI1MXBWX-123" target="tBkHHK9JIL61vI1MXBWX-83" edge="1">
          <mxGeometry width="50" height="50" relative="1" as="geometry">
            <mxPoint x="-40" y="580" as="sourcePoint" />
            <mxPoint x="-530" y="290" as="targetPoint" />
            <Array as="points">
              <mxPoint x="90" y="530" />
              <mxPoint x="-530" y="530" />
              <mxPoint x="-530" y="340" />
              <mxPoint x="-530" y="250" />
            </Array>
          </mxGeometry>
        </mxCell>
        <mxCell id="tBkHHK9JIL61vI1MXBWX-177" value="&lt;font style=&quot;font-size: 10px&quot;&gt;FK&lt;/font&gt;" style="text;strokeColor=none;fillColor=none;html=1;fontSize=24;fontStyle=1;verticalAlign=middle;align=center;fontColor=#FF0000;" parent="1" vertex="1">
          <mxGeometry x="-520" y="250" width="40" height="20" as="geometry" />
        </mxCell>
        <mxCell id="tBkHHK9JIL61vI1MXBWX-178" value="" style="endArrow=classic;html=1;rounded=0;fontSize=10;fontColor=#FF0000;exitX=0.601;exitY=-0.043;exitDx=0;exitDy=0;exitPerimeter=0;" parent="1" source="tBkHHK9JIL61vI1MXBWX-134" edge="1">
          <mxGeometry width="50" height="50" relative="1" as="geometry">
            <mxPoint x="-40" y="810" as="sourcePoint" />
            <mxPoint x="-470" y="280" as="targetPoint" />
            <Array as="points">
              <mxPoint x="-264" y="890" />
              <mxPoint x="-580" y="890" />
              <mxPoint x="-580" y="310" />
              <mxPoint x="-470" y="310" />
            </Array>
          </mxGeometry>
        </mxCell>
        <mxCell id="tBkHHK9JIL61vI1MXBWX-179" value="&lt;font style=&quot;font-size: 10px&quot;&gt;FK&lt;/font&gt;" style="text;strokeColor=none;fillColor=none;html=1;fontSize=24;fontStyle=1;verticalAlign=middle;align=center;fontColor=#FF0000;" parent="1" vertex="1">
          <mxGeometry x="-500" y="270" width="30" height="40" as="geometry" />
        </mxCell>
        <mxCell id="tBkHHK9JIL61vI1MXBWX-181" value="" style="endArrow=classic;html=1;rounded=0;fontSize=10;fontColor=#FF0000;exitX=0.918;exitY=1.14;exitDx=0;exitDy=0;exitPerimeter=0;entryX=0;entryY=0.71;entryDx=0;entryDy=0;entryPerimeter=0;" parent="1" source="tBkHHK9JIL61vI1MXBWX-143" target="tBkHHK9JIL61vI1MXBWX-134" edge="1">
          <mxGeometry width="50" height="50" relative="1" as="geometry">
            <mxPoint x="-210" y="790" as="sourcePoint" />
            <mxPoint x="-520" y="1030" as="targetPoint" />
            <Array as="points">
              <mxPoint x="-150" y="840" />
              <mxPoint x="-520" y="840" />
              <mxPoint x="-520" y="968" />
            </Array>
          </mxGeometry>
        </mxCell>
        <mxCell id="tBkHHK9JIL61vI1MXBWX-182" value="&lt;font style=&quot;font-size: 10px&quot;&gt;FK&lt;/font&gt;" style="text;strokeColor=none;fillColor=none;html=1;fontSize=24;fontStyle=1;verticalAlign=middle;align=center;fontColor=#FF0000;" parent="1" vertex="1">
          <mxGeometry x="-520" y="960" width="30" height="40" as="geometry" />
        </mxCell>
        <mxCell id="tBkHHK9JIL61vI1MXBWX-183" value="" style="endArrow=classic;html=1;rounded=0;fontSize=10;fontColor=#FF0000;exitX=0;exitY=0.5;exitDx=0;exitDy=0;entryX=-0.001;entryY=0.272;entryDx=0;entryDy=0;entryPerimeter=0;" parent="1" source="tBkHHK9JIL61vI1MXBWX-143" target="tBkHHK9JIL61vI1MXBWX-83" edge="1">
          <mxGeometry width="50" height="50" relative="1" as="geometry">
            <mxPoint x="-490" y="780" as="sourcePoint" />
            <mxPoint x="-510" y="190" as="targetPoint" />
            <Array as="points">
              <mxPoint x="-630" y="780" />
              <mxPoint x="-630" y="241" />
            </Array>
          </mxGeometry>
        </mxCell>
        <mxCell id="tBkHHK9JIL61vI1MXBWX-186" value="&lt;font style=&quot;font-size: 10px&quot;&gt;FK&lt;/font&gt;" style="text;strokeColor=none;fillColor=none;html=1;fontSize=24;fontStyle=1;verticalAlign=middle;align=center;fontColor=#FF0000;" parent="1" vertex="1">
          <mxGeometry x="-550" y="220" width="40" height="20" as="geometry" />
        </mxCell>
        <mxCell id="tBkHHK9JIL61vI1MXBWX-190" value="" style="endArrow=classic;html=1;rounded=0;fontSize=10;fontColor=#FF0000;exitX=0.753;exitY=-0.028;exitDx=0;exitDy=0;exitPerimeter=0;entryX=0.052;entryY=1.11;entryDx=0;entryDy=0;entryPerimeter=0;" parent="1" source="tBkHHK9JIL61vI1MXBWX-167" target="tBkHHK9JIL61vI1MXBWX-134" edge="1">
          <mxGeometry width="50" height="50" relative="1" as="geometry">
            <mxPoint y="950" as="sourcePoint" />
            <mxPoint x="-460" y="990" as="targetPoint" />
            <Array as="points">
              <mxPoint x="-390" y="1040" />
              <mxPoint x="-460" y="1040" />
            </Array>
          </mxGeometry>
        </mxCell>
        <mxCell id="tBkHHK9JIL61vI1MXBWX-191" value="&lt;font style=&quot;font-size: 10px&quot;&gt;FK&lt;/font&gt;" style="text;strokeColor=none;fillColor=none;html=1;fontSize=24;fontStyle=1;verticalAlign=middle;align=center;fontColor=#FF0000;" parent="1" vertex="1">
          <mxGeometry x="-465" y="980" width="30" height="40" as="geometry" />
        </mxCell>
        <mxCell id="tBkHHK9JIL61vI1MXBWX-193" value="" style="endArrow=classic;html=1;rounded=0;fontSize=10;fontColor=#FF0000;entryX=0.1;entryY=1.087;entryDx=0;entryDy=0;entryPerimeter=0;exitX=0.18;exitY=1.054;exitDx=0;exitDy=0;exitPerimeter=0;" parent="1" source="tBkHHK9JIL61vI1MXBWX-167" target="tBkHHK9JIL61vI1MXBWX-127" edge="1">
          <mxGeometry width="50" height="50" relative="1" as="geometry">
            <mxPoint x="-480" y="1150" as="sourcePoint" />
            <mxPoint x="110" y="1140" as="targetPoint" />
            <Array as="points">
              <mxPoint x="-460" y="1160" />
              <mxPoint x="34" y="1150" />
            </Array>
          </mxGeometry>
        </mxCell>
        <mxCell id="tBkHHK9JIL61vI1MXBWX-195" value="&lt;font style=&quot;font-size: 10px&quot;&gt;FK&lt;/font&gt;" style="text;strokeColor=none;fillColor=none;html=1;fontSize=24;fontStyle=1;verticalAlign=middle;align=center;fontColor=#FF0000;" parent="1" vertex="1">
          <mxGeometry y="980" width="30" height="40" as="geometry" />
        </mxCell>
        <mxCell id="tBkHHK9JIL61vI1MXBWX-196" value="" style="endArrow=classic;html=1;rounded=0;fontSize=10;fontColor=#FF0000;exitX=0.752;exitY=1.069;exitDx=0;exitDy=0;exitPerimeter=0;entryX=0;entryY=0.5;entryDx=0;entryDy=0;" parent="1" source="tBkHHK9JIL61vI1MXBWX-152" target="tBkHHK9JIL61vI1MXBWX-112" edge="1">
          <mxGeometry width="50" height="50" relative="1" as="geometry">
            <mxPoint y="480" as="sourcePoint" />
            <mxPoint x="-530" y="680" as="targetPoint" />
            <Array as="points">
              <mxPoint x="140" y="570" />
              <mxPoint x="-530" y="570" />
              <mxPoint x="-530" y="630" />
            </Array>
          </mxGeometry>
        </mxCell>
        <mxCell id="tBkHHK9JIL61vI1MXBWX-197" value="&lt;font style=&quot;font-size: 10px&quot;&gt;FK&lt;/font&gt;" style="text;strokeColor=none;fillColor=none;html=1;fontSize=24;fontStyle=1;verticalAlign=middle;align=center;fontColor=#FF0000;" parent="1" vertex="1">
          <mxGeometry x="-520" y="620" width="30" height="40" as="geometry" />
        </mxCell>
        <mxCell id="tBkHHK9JIL61vI1MXBWX-198" value="" style="endArrow=classic;html=1;rounded=0;fontSize=10;fontColor=#FF0000;exitX=0;exitY=0.5;exitDx=0;exitDy=0;" parent="1" source="tBkHHK9JIL61vI1MXBWX-152" edge="1">
          <mxGeometry width="50" height="50" relative="1" as="geometry">
            <mxPoint x="-110" y="480" as="sourcePoint" />
            <mxPoint x="-450" y="280" as="targetPoint" />
            <Array as="points">
              <mxPoint y="460" />
              <mxPoint y="320" />
              <mxPoint x="-450" y="320" />
            </Array>
          </mxGeometry>
        </mxCell>
        <mxCell id="tBkHHK9JIL61vI1MXBWX-199" value="&lt;font style=&quot;font-size: 10px&quot;&gt;FK&lt;/font&gt;" style="text;strokeColor=none;fillColor=none;html=1;fontSize=24;fontStyle=1;verticalAlign=middle;align=center;fontColor=#FF0000;" parent="1" vertex="1">
          <mxGeometry x="-460" y="280" width="30" height="40" as="geometry" />
        </mxCell>
        <mxCell id="tBkHHK9JIL61vI1MXBWX-200" value="" style="endArrow=classic;html=1;rounded=0;fontSize=10;fontColor=#FF0000;exitX=1;exitY=0.5;exitDx=0;exitDy=0;" parent="1" source="tBkHHK9JIL61vI1MXBWX-157" target="tBkHHK9JIL61vI1MXBWX-134" edge="1">
          <mxGeometry width="50" height="50" relative="1" as="geometry">
            <mxPoint x="-260" y="810" as="sourcePoint" />
            <mxPoint x="-210" y="760" as="targetPoint" />
          </mxGeometry>
        </mxCell>
        <mxCell id="tBkHHK9JIL61vI1MXBWX-201" value="&lt;font style=&quot;font-size: 10px&quot;&gt;FK&lt;/font&gt;" style="text;strokeColor=none;fillColor=none;html=1;fontSize=24;fontStyle=1;verticalAlign=middle;align=center;fontColor=#FF0000;" parent="1" vertex="1">
          <mxGeometry x="-515" y="930" width="30" height="30" as="geometry" />
        </mxCell>
        <mxCell id="tBkHHK9JIL61vI1MXBWX-202" value="" style="endArrow=classic;html=1;rounded=0;fontSize=10;fontColor=#FF0000;exitX=0;exitY=0.5;exitDx=0;exitDy=0;entryX=0;entryY=1;entryDx=0;entryDy=0;" parent="1" source="tBkHHK9JIL61vI1MXBWX-157" target="tBkHHK9JIL61vI1MXBWX-99" edge="1">
          <mxGeometry width="50" height="50" relative="1" as="geometry">
            <mxPoint x="-740" y="980" as="sourcePoint" />
            <mxPoint x="-740" y="160" as="targetPoint" />
            <Array as="points">
              <mxPoint x="-750" y="960" />
              <mxPoint x="-750" y="230" />
            </Array>
          </mxGeometry>
        </mxCell>
        <mxCell id="tBkHHK9JIL61vI1MXBWX-205" value="&lt;font style=&quot;font-size: 10px&quot;&gt;FK&lt;/font&gt;" style="text;strokeColor=none;fillColor=none;html=1;fontSize=24;fontStyle=1;verticalAlign=middle;align=center;fontColor=#FF0000;" parent="1" vertex="1">
          <mxGeometry x="-700" y="190" width="30" height="40" as="geometry" />
        </mxCell>
        <mxCell id="tBkHHK9JIL61vI1MXBWX-206" value="" style="endArrow=classic;html=1;rounded=0;fontSize=10;fontColor=#FF0000;exitX=0.348;exitY=1.069;exitDx=0;exitDy=0;exitPerimeter=0;entryX=0.229;entryY=-0.137;entryDx=0;entryDy=0;entryPerimeter=0;" parent="1" source="tBkHHK9JIL61vI1MXBWX-162" target="tBkHHK9JIL61vI1MXBWX-127" edge="1">
          <mxGeometry width="50" height="50" relative="1" as="geometry">
            <mxPoint x="-260" y="690" as="sourcePoint" />
            <mxPoint x="-210" y="640" as="targetPoint" />
          </mxGeometry>
        </mxCell>
        <mxCell id="tBkHHK9JIL61vI1MXBWX-207" value="&lt;font style=&quot;font-size: 10px&quot;&gt;FK&lt;/font&gt;" style="text;strokeColor=none;fillColor=none;html=1;fontSize=24;fontStyle=1;verticalAlign=middle;align=center;fontColor=#FF0000;" parent="1" vertex="1">
          <mxGeometry x="70" y="880" width="30" height="40" as="geometry" />
        </mxCell>
        <mxCell id="tBkHHK9JIL61vI1MXBWX-208" value="" style="endArrow=classic;html=1;rounded=0;fontSize=10;fontColor=#FF0000;exitX=0.85;exitY=0.034;exitDx=0;exitDy=0;exitPerimeter=0;entryX=1;entryY=0.75;entryDx=0;entryDy=0;" parent="1" source="tBkHHK9JIL61vI1MXBWX-162" target="tBkHHK9JIL61vI1MXBWX-99" edge="1">
          <mxGeometry width="50" height="50" relative="1" as="geometry">
            <mxPoint x="-20" y="820" as="sourcePoint" />
            <mxPoint x="-410" y="180" as="targetPoint" />
            <Array as="points">
              <mxPoint x="112" y="710" />
              <mxPoint x="300" y="710" />
              <mxPoint x="300" y="180" />
              <mxPoint x="-370" y="180" />
            </Array>
          </mxGeometry>
        </mxCell>
        <mxCell id="tBkHHK9JIL61vI1MXBWX-209" value="&lt;font style=&quot;font-size: 10px&quot;&gt;FK&lt;/font&gt;" style="text;strokeColor=none;fillColor=none;html=1;fontSize=24;fontStyle=1;verticalAlign=middle;align=center;fontColor=#FF0000;" parent="1" vertex="1">
          <mxGeometry x="-414" y="160" width="30" height="40" as="geometry" />
        </mxCell>
      </root>
    </mxGraphModel>
  </diagram>
</mxfile>
